<svg width="40" height="40" viewBox="0 0 40 40" fill="none" xmlns="http://www.w3.org/2000/svg">
<circle cx="20" cy="20" r="20" fill="white"/>
<path d="M9.16129 18.7257H17.5644C17.8724 18.7257 18.1678 18.6033 18.3855 18.3855C18.6033 18.1678 18.7257 17.8724 18.7257 17.5644V9.16129C18.7257 8.8533 18.6033 8.55792 18.3855 8.34013C18.1678 8.12235 17.8724 8 17.5644 8H9.16129C8.8533 8 8.55792 8.12235 8.34013 8.34013C8.12235 8.55792 8 8.8533 8 9.16129V17.5644C8 17.8724 8.12235 18.1678 8.34013 18.3855C8.55792 18.6033 8.8533 18.7257 9.16129 18.7257ZM10.3226 10.3226H16.4031V16.4031H10.3226V10.3226ZM32 9.16129C32 8.8533 31.8776 8.55792 31.6599 8.34013C31.4421 8.12235 31.1467 8 30.8387 8H22.4356C22.1276 8 21.8322 8.12235 21.6145 8.34013C21.3967 8.55792 21.2743 8.8533 21.2743 9.16129V17.5644C21.2743 17.8724 21.3967 18.1678 21.6145 18.3855C21.8322 18.6033 22.1276 18.7257 22.4356 18.7257H30.8387C31.1467 18.7257 31.4421 18.6033 31.6599 18.3855C31.8776 18.1678 32 17.8724 32 17.5644V9.16129ZM29.6774 16.4031H23.5969V10.3226H29.6774V16.4031ZM9.16129 32H17.5644C17.8724 32 18.1678 31.8776 18.3855 31.6599C18.6033 31.4421 18.7257 31.1467 18.7257 30.8387V22.4356C18.7257 22.1276 18.6033 21.8322 18.3855 21.6145C18.1678 21.3967 17.8724 21.2743 17.5644 21.2743H9.16129C8.8533 21.2743 8.55792 21.3967 8.34013 21.6145C8.12235 21.8322 8 22.1276 8 22.4356V30.8387C8 31.1467 8.12235 31.4421 8.34013 31.6599C8.55792 31.8776 8.8533 32 9.16129 32ZM10.3226 23.5969H16.4031V29.6774H10.3226V23.5969ZM26.6364 21.2743C23.679 21.2743 21.2743 23.6797 21.2743 26.6372C21.2743 29.5946 23.6797 32 26.6364 32C29.5938 32 32 29.5946 32 26.6372C32 23.6797 29.5946 21.2743 26.6364 21.2743ZM26.6364 29.6774C24.9603 29.6774 23.5969 28.3133 23.5969 26.6372C23.5969 24.961 24.9603 23.5961 26.6364 23.5961C28.3133 23.5961 29.6774 24.9603 29.6774 26.6372C29.6774 28.3141 28.3133 29.6774 26.6364 29.6774Z" fill="#326AEB"/>
</svg>
