<svg width="50" height="50" viewBox="0 0 50 50" fill="none" xmlns="http://www.w3.org/2000/svg">
<path d="M2.41935 22.3452H19.9258C20.5675 22.3452 21.1828 22.0903 21.6365 21.6365C22.0903 21.1828 22.3452 20.5675 22.3452 19.9258V2.41935C22.3452 1.7777 22.0903 1.16233 21.6365 0.708613C21.1828 0.254896 20.5675 0 19.9258 0H2.41935C1.7777 0 1.16233 0.254896 0.708613 0.708613C0.254896 1.16233 0 1.7777 0 2.41935V19.9258C0 20.5675 0.254896 21.1828 0.708613 21.6365C1.16233 22.0903 1.7777 22.3452 2.41935 22.3452ZM4.83871 4.83871H17.5065V17.5065H4.83871V4.83871ZM50 2.41935C50 1.7777 49.7451 1.16233 49.2914 0.708613C48.8377 0.254896 48.2223 0 47.5806 0H30.0742C29.4325 0 28.8172 0.254896 28.3635 0.708613C27.9097 1.16233 27.6548 1.7777 27.6548 2.41935V19.9258C27.6548 20.5675 27.9097 21.1828 28.3635 21.6365C28.8172 22.0903 29.4325 22.3452 30.0742 22.3452H47.5806C48.2223 22.3452 48.8377 22.0903 49.2914 21.6365C49.7451 21.1828 50 20.5675 50 19.9258V2.41935ZM45.1613 17.5065H32.4935V4.83871H45.1613V17.5065ZM2.41935 50H19.9258C20.5675 50 21.1828 49.7451 21.6365 49.2914C22.0903 48.8377 22.3452 48.2223 22.3452 47.5806V30.0742C22.3452 29.4325 22.0903 28.8172 21.6365 28.3635C21.1828 27.9097 20.5675 27.6548 19.9258 27.6548H2.41935C1.7777 27.6548 1.16233 27.9097 0.708613 28.3635C0.254896 28.8172 0 29.4325 0 30.0742V47.5806C0 48.2223 0.254896 48.8377 0.708613 49.2914C1.16233 49.7451 1.7777 50 2.41935 50ZM4.83871 32.4935H17.5065V45.1613H4.83871V32.4935ZM38.8258 27.6548C32.6645 27.6548 27.6548 32.6661 27.6548 38.8274C27.6548 44.9887 32.6661 50 38.8258 50C44.9871 50 50 44.9887 50 38.8274C50 32.6661 44.9887 27.6548 38.8258 27.6548ZM38.8258 45.1613C35.3339 45.1613 32.4935 42.3194 32.4935 38.8274C32.4935 35.3355 35.3339 32.4919 38.8258 32.4919C42.3194 32.4919 45.1613 35.3339 45.1613 38.8274C45.1613 42.321 42.3194 45.1613 38.8258 45.1613Z" fill="#326AEB"/>
</svg>
